<svg id="Layer_1" data-name="Layer 1" xmlns="http://www.w3.org/2000/svg" xmlns:xlink="http://www.w3.org/1999/xlink" viewBox="0 0 778.79 208.64">
    <defs>
        <style>
            .cls-1, .cls-10 {
            fill: none;
            }

            .cls-2, .cls-3 {
            fill: #76bf44;
            }

            .cls-2 {
            fill-rule: evenodd;
            }

            .cls-4 {
            fill: #f58220;
            }

            .cls-5 {
            clip-path: url(#clip-path);
            }

            .cls-6 {
            fill: url(#Безымянный_градиент_9);
            }

            .cls-7 {
            fill: url(#Безымянный_градиент_15);
            }

            .cls-8 {
            fill: url(#Безымянный_градиент_6);
            }

            .cls-9 {
            fill: url(#Безымянный_градиент_15-2);
            }

            .cls-10 {
            stroke: #fff;
            stroke-miterlimit: 10;
            stroke-width: 4px;
            }
        </style>
        <clipPath id="clip-path">
            <circle class="cls-1" cx="441.14" cy="163.79" r="42.8"/>
        </clipPath>
        <linearGradient id="Безымянный_градиент_9" data-name="Безымянный градиент 9" x1="398.66" y1="164.42" x2="483.64" y2="164.42" gradientUnits="userSpaceOnUse">
            <stop offset="0" stop-color="#005cff"/>
            <stop offset="1" stop-color="#2e3192"/>
        </linearGradient>
        <linearGradient id="Безымянный_градиент_15" data-name="Безымянный градиент 15" x1="416.05" y1="161.48" x2="421.76" y2="161.48" gradientUnits="userSpaceOnUse">
            <stop offset="0" stop-color="#ff0"/>
            <stop offset="1" stop-color="#f7931e"/>
        </linearGradient>
        <linearGradient id="Безымянный_градиент_6" data-name="Безымянный градиент 6" x1="651.88" y1="161.48" x2="657.59" y2="161.48" gradientTransform="matrix(-1, 0, 0, 1, 1119.21, 0)" gradientUnits="userSpaceOnUse">
            <stop offset="0" stop-color="#f7931e"/>
            <stop offset="1" stop-color="#ff0"/>
        </linearGradient>
        <linearGradient id="Безымянный_градиент_15-2" x1="423.06" y1="162.78" x2="460.37" y2="162.78" xlink:href="#Безымянный_градиент_15"/>
    </defs>
    <g id="Слой_2" data-name="Слой 2">
        <g id="Слой_1-2" data-name="Слой 1-2">
            <g id="Logo">
                <path class="cls-2" d="M757.49,65.54c-14.7-11.7-31-15.5-47.7-16-15.8-.6-30.8,2.3-41.4,4.4a256.52,256.52,0,0,0-24.9,6.5c0,8.6-.1,39.3-.1,39.3s7.6-6.2,14.7-9.4c15.7-7.1,33.2-10,48-7.9,17.7,2.5,26,14.3,26,25.8-24-3.5-49.7-2.6-69.6,3.2-30.1,8.7-41.4,32.8-38.4,55.1,2.8,21,22.7,40.2,57.4,40.2,25.1,0,45.7-16.9,51.6-27.9l.4,23.9h44.9l.4-86.1c0-25.9-8-40.6-21.3-51.1Zm-52.8,101.4h0c-13.4,5-31.9,4.4-35.8-7.6-3.2-10.1,6.2-21.5,25.8-24.9,10.1-1.7,24.5-2.1,36.4,1-.8,7.7-7.2,24.3-26.4,31.5Z"/>
                <path class="cls-3" d="M614,202.44h-41.2l-.3-23.4c-14.1,20.1-32.2,28.3-50.3,28.4-28.7.1-55-21.9-55-58.3V53.84h44.1v82.5c0,24.2,9.2,34.3,25,32.3,20.1-2.5,32.4-16.6,32.4-32.4V53.84H614v148.6Z"/>
                <path class="cls-2" d="M243.69,55.64l-42,102c-5.6-16-17.6-39.9-31.8-59.7-3.5,14.1-10.2,30.7-20.8,44.8,10.5,15.5,21.4,41.3,27.5,61.8h48.5l65.8-148.9Z"/>
                <path class="cls-2" d="M392.59,67.34c-14.7-11.7-31-15.5-47.7-16a162.53,162.53,0,0,0-41.4,4.5L286,96.24a63.69,63.69,0,0,1,7.2-4.1,84.65,84.65,0,0,1,48-7.9c17.7,2.5,26,14.3,26,25.8-24-3.5-49.7-2.6-69.6,3.2-30.1,8.7-41.4,32.8-38.4,55.1,2.8,21,22.7,40.3,57.4,40.3,25.1,0,45.7-16.9,51.6-27.9l.4,23.9h44.9l.4-86.1c0-26-8-40.7-21.3-51.2Zm-52.7,101.4h0c-13.4,5-31.9,4.4-35.8-7.5-3.2-10.1,6.1-21.5,25.8-24.9,10.1-1.7,24.5-2.1,36.4,1-.9,7.6-7.3,24.3-26.4,31.4Z"/>
                <path class="cls-4" d="M141.39,149.94a71.8,71.8,0,0,1-32.4,20.3c-20.5,6.2-39.8,1.4-50.1-9.6a30.55,30.55,0,0,1-8.9-18.3c38.9,5.4,79.5,1,96.8-19,11.3-13,14.1-34.1,1.2-51.3-11.3-15.1-37.4-25.2-68.5-22-40.8,4.1-77.4,31.9-79.4,76.8-2.1,45.9,34.4,79.9,84.5,79.9,32,0,58.5-10.8,71.9-24.5a287.75,287.75,0,0,0-15.1-32.3ZM76,83.14h0c13.4-5,31.9-4.4,35.8,7.5,3.2,10.1-6.1,21.5-25.8,24.9-10.1,1.7-24.5,2.1-36.4-1,.8-7.6,7.2-24.3,26.4-31.4Z"/>
                <path class="cls-3" d="M113.49,22.94A83.12,83.12,0,0,0,93,7.64,67.61,67.61,0,0,0,59.69,0c-5.8.2-13.4,1-19,2.9,2.9,15.2,16.3,26.9,30,32.6,27.1,11.3,55.5,7.7,56.7,7.6-2.5-6.6-9.1-15.2-13.9-20.2Z"/>
            </g>
        </g>
        <g class="cls-5">
            <g>
                <rect class="cls-6" x="398.66" y="121.3" width="84.97" height="86.24"/>
                <g>
                    <path class="cls-7" d="M416.05,144a4.4,4.4,0,0,1,3.32.9,5.8,5.8,0,0,1,2.22,2.82l.17,31.23h-5.71Z"/>
                    <path class="cls-8" d="M467.32,144a4.38,4.38,0,0,0-3.31.9,5.8,5.8,0,0,0-2.22,2.82L461.61,179h5.71Z"/>
                    <path class="cls-9" d="M453.86,180.42s2-36.73-12.46-47.52c0,0-14.19,15.58-11.65,47.18l-6.69.34s.58,9.58,3.69,11.88l6.23-.05s-2.65-3.81-3.29-6.06h23.53a10,10,0,0,1-2.65,6.46l6.4-.17a39.23,39.23,0,0,0,3.4-12.06Zm-5.48-.11H435.06s.07-14.31.92-19.67c2.59-16.43,5.82-18.28,5.82-18.28C448.86,149.63,448.65,180.31,448.38,180.31Z"/>
                </g>
            </g>
            <circle class="cls-10" cx="441.14" cy="163.79" r="42.8"/>
        </g>
    </g>
</svg>

